# xmcd
#
# Track frame offsets:
#	150
#	16991
#	36175
#	54970
#	70416
#	87112
#	102187
#	119580
#	138191
#	155719
#	170534
#	189201
#	204324
#
# Disc length: 2874 seconds
#
# Revision: 0
# Processed by: cddbd v1.5.2PL0 Copyright (c) Steve Scherf et al.
# Submitted via: EasyCDDAExtractor 16.0.6.1
#
DISCID=a80b380d
DTITLE=The Facts Of Life - Just The Facts The Complere Kayvette Recordings 197
DTITLE=5 -1978
DYEAR=2008
DGENRE=Soul
TTITLE0=Sometimes
TTITLE1=Caught In The Act (Of Gettin It On)
TTITLE2=Bitter Woman
TTITLE3=Lost Inside Of You
TTITLE4=Looks Like We Made It
TTITLE5=A Hundred Pounds Of Pain
TTITLE6=Uphill Peace Of Mind
TTITLE7=What Would Your Mama Say
TTITLE8=Givin' Me Your Love
TTITLE9=That Kind Of Fire
TTITLE10=Love Is The Final Truth
TTITLE11=If You Can Give, You Can Get
TTITLE12=L.O.V.E.
EXTD=
EXTT0=
EXTT1=
EXTT2=
EXTT3=
EXTT4=
EXTT5=
EXTT6=
EXTT7=
EXTT8=
EXTT9=
EXTT10=
EXTT11=
EXTT12=
PLAYORDER=
